<svg width="28" height="28" viewBox="0 0 28 28" fill="none" xmlns="http://www.w3.org/2000/svg">
<rect width="28" height="28" fill="#F4F4F4"/>
<g id="Landing Page - Mobile" clip-path="url(#clip0_22_249)" filter="url(#filter0_d_22_249)">
<rect width="375" height="9283" transform="translate(-114 -9207)" fill="white"/>
<g id="Group 2194">
<g id="Bottom">
<rect width="375" height="245.015" transform="translate(-114 -169.015)" fill="#FAFAFA"/>
<g id="ri:instagram-fill">
<path id="Vector" d="M13.9997 2.33301C17.1695 2.33301 17.565 2.34467 18.8087 2.40301C20.0512 2.46134 20.897 2.65617 21.6413 2.94551C22.4113 3.24184 23.06 3.64317 23.7087 4.29067C24.3019 4.87389 24.761 5.57936 25.0538 6.35801C25.342 7.10117 25.538 7.94817 25.5963 9.19067C25.6512 10.4343 25.6663 10.8298 25.6663 13.9997C25.6663 17.1695 25.6547 17.565 25.5963 18.8087C25.538 20.0512 25.342 20.897 25.0538 21.6413C24.7618 22.4204 24.3027 23.1261 23.7087 23.7087C23.1253 24.3017 22.4199 24.7607 21.6413 25.0538C20.8982 25.342 20.0512 25.538 18.8087 25.5963C17.565 25.6512 17.1695 25.6663 13.9997 25.6663C10.8298 25.6663 10.4343 25.6547 9.19067 25.5963C7.94817 25.538 7.10234 25.342 6.35801 25.0538C5.57906 24.7616 4.87346 24.3024 4.29067 23.7087C3.69732 23.1256 3.23826 22.4201 2.94551 21.6413C2.65617 20.8982 2.46134 20.0512 2.40301 18.8087C2.34817 17.565 2.33301 17.1695 2.33301 13.9997C2.33301 10.8298 2.34467 10.4343 2.40301 9.19067C2.46134 7.94701 2.65617 7.10234 2.94551 6.35801C3.23745 5.57888 3.69661 4.87322 4.29067 4.29067C4.87362 3.69711 5.57917 3.23803 6.35801 2.94551C7.10234 2.65617 7.94701 2.46134 9.19067 2.40301C10.4343 2.34817 10.8298 2.33301 13.9997 2.33301ZM13.9997 8.16634C12.4526 8.16634 10.9688 8.78092 9.87489 9.87489C8.78092 10.9688 8.16634 12.4526 8.16634 13.9997C8.16634 15.5468 8.78092 17.0305 9.87489 18.1245C10.9688 19.2184 12.4526 19.833 13.9997 19.833C15.5468 19.833 17.0305 19.2184 18.1245 18.1245C19.2184 17.0305 19.833 15.5468 19.833 13.9997C19.833 12.4526 19.2184 10.9688 18.1245 9.87489C17.0305 8.78092 15.5468 8.16634 13.9997 8.16634V8.16634ZM21.583 7.87467C21.583 7.4879 21.4294 7.11697 21.1559 6.84348C20.8824 6.56999 20.5114 6.41634 20.1247 6.41634C19.7379 6.41634 19.367 6.56999 19.0935 6.84348C18.82 7.11697 18.6663 7.4879 18.6663 7.87467C18.6663 8.26145 18.82 8.63238 19.0935 8.90587C19.367 9.17936 19.7379 9.33301 20.1247 9.33301C20.5114 9.33301 20.8824 9.17936 21.1559 8.90587C21.4294 8.63238 21.583 8.26145 21.583 7.87467ZM13.9997 10.4997C14.9279 10.4997 15.8182 10.8684 16.4745 11.5248C17.1309 12.1812 17.4997 13.0714 17.4997 13.9997C17.4997 14.9279 17.1309 15.8182 16.4745 16.4745C15.8182 17.1309 14.9279 17.4997 13.9997 17.4997C13.0714 17.4997 12.1812 17.1309 11.5248 16.4745C10.8684 15.8182 10.4997 14.9279 10.4997 13.9997C10.4997 13.0714 10.8684 12.1812 11.5248 11.5248C12.1812 10.8684 13.0714 10.4997 13.9997 10.4997V10.4997Z" fill="#3461FF"/>
</g>
</g>
</g>
</g>
<defs>
<filter id="filter0_d_22_249" x="-150" y="-9219" width="447" height="9355" filterUnits="userSpaceOnUse" color-interpolation-filters="sRGB">
<feFlood flood-opacity="0" result="BackgroundImageFix"/>
<feColorMatrix in="SourceAlpha" type="matrix" values="0 0 0 0 0 0 0 0 0 0 0 0 0 0 0 0 0 0 127 0" result="hardAlpha"/>
<feMorphology radius="12" operator="erode" in="SourceAlpha" result="effect1_dropShadow_22_249"/>
<feOffset dy="24"/>
<feGaussianBlur stdDeviation="24"/>
<feColorMatrix type="matrix" values="0 0 0 0 0.0625882 0 0 0 0 0.0926346 0 0 0 0 0.15702 0 0 0 0.18 0"/>
<feBlend mode="normal" in2="BackgroundImageFix" result="effect1_dropShadow_22_249"/>
<feBlend mode="normal" in="SourceGraphic" in2="effect1_dropShadow_22_249" result="shape"/>
</filter>
<clipPath id="clip0_22_249">
<rect width="375" height="9283" fill="white" transform="translate(-114 -9207)"/>
</clipPath>
</defs>
</svg>
