<svg width="28" height="28" viewBox="0 0 28 28" fill="none" xmlns="http://www.w3.org/2000/svg">
<path d="M9.539 23.501C18.596 23.501 23.5505 15.9965 23.5505 9.49998C23.5505 9.28998 23.5505 9.07698 23.5415 8.86698C24.5061 8.16871 25.3386 7.30421 26 6.31398C25.099 6.71125 24.1441 6.97309 23.1665 7.09098C24.1963 6.47544 24.9676 5.50693 25.337 4.36548C24.3695 4.93866 23.3105 5.34104 22.2065 5.55498C21.4643 4.76451 20.4821 4.24086 19.4121 4.06511C18.3422 3.88937 17.2441 4.07136 16.288 4.58288C15.3319 5.09441 14.5712 5.90692 14.1237 6.89457C13.6761 7.88222 13.5668 8.98988 13.8125 10.046C11.8546 9.94781 9.93922 9.43918 8.19056 8.55309C6.4419 7.66701 4.89903 6.42324 3.662 4.90248C3.03401 5.9871 2.84236 7.27008 3.12597 8.49088C3.40958 9.71168 4.14718 10.7788 5.189 11.4755C4.40831 11.449 3.64478 11.2393 2.96 10.8635V10.931C2.96135 12.0672 3.35496 13.1681 4.07431 14.0476C4.79366 14.9271 5.79462 15.5313 6.908 15.758C6.48539 15.8744 6.04884 15.9324 5.6105 15.9305C5.30148 15.9314 4.99307 15.9028 4.6895 15.845C5.00418 16.8231 5.61691 17.6782 6.44187 18.2907C7.26683 18.9032 8.2627 19.2423 9.29 19.2605C7.54483 20.6312 5.3891 21.3746 3.17 21.371C2.77898 21.3726 2.38823 21.3501 2 21.3035C4.25227 22.7394 6.86795 23.5018 9.539 23.501V23.501Z" fill="#3461FF"/>
</svg>
