<svg width="46" height="46" viewBox="0 0 46 46" fill="none" xmlns="http://www.w3.org/2000/svg">
<g clip-path="url(#clip0_6_2447)">
<path d="M45.8158 10.6252C45.5824 10.0632 45.1358 9.61659 44.5738 9.38321C44.2973 9.26536 44.0004 9.20285 43.6999 9.19922H32.2003C31.5904 9.19922 31.0054 9.44153 30.5741 9.87285C30.1427 10.3042 29.9004 10.8892 29.9004 11.4991C29.9004 12.1091 30.1427 12.6941 30.5741 13.1254C31.0054 13.5567 31.5904 13.799 32.2003 13.799H38.1571L25.3006 26.6555L17.7339 19.0658C17.5201 18.8503 17.2657 18.6792 16.9855 18.5624C16.7052 18.4456 16.4046 18.3855 16.101 18.3855C15.7974 18.3855 15.4968 18.4456 15.2165 18.5624C14.9362 18.6792 14.6818 18.8503 14.468 19.0658L0.66859 32.8653C0.453023 33.0791 0.281923 33.3335 0.16516 33.6137C0.0483968 33.894 -0.0117188 34.1946 -0.0117188 34.4982C-0.0117187 34.8018 0.0483968 35.1024 0.16516 35.3827C0.281923 35.663 0.453023 35.9173 0.66859 36.1311C0.882397 36.3467 1.13677 36.5178 1.41703 36.6346C1.6973 36.7513 1.99791 36.8115 2.30153 36.8115C2.60514 36.8115 2.90575 36.7513 3.18602 36.6346C3.46628 36.5178 3.72065 36.3467 3.93446 36.1311L16.101 23.9416L23.6677 31.5313C23.8815 31.7469 24.1359 31.918 24.4161 32.0348C24.6964 32.1515 24.997 32.2116 25.3006 32.2116C25.6042 32.2116 25.9048 32.1515 26.1851 32.0348C26.4654 31.918 26.7197 31.7469 26.9335 31.5313L41.4 17.0419V22.9987C41.4 23.6086 41.6423 24.1936 42.0736 24.625C42.5049 25.0563 43.0899 25.2986 43.6999 25.2986C44.3099 25.2986 44.8948 25.0563 45.3262 24.625C45.7575 24.1936 45.9998 23.6086 45.9998 22.9987V11.4991C45.9962 11.1986 45.9336 10.9017 45.8158 10.6252Z" fill="white"/>
</g>
<defs>
<clipPath id="clip0_6_2447">
<rect width="46" height="46" fill="white"/>
</clipPath>
</defs>
</svg>
