<svg width="46" height="46" viewBox="0 0 46 46" fill="none" xmlns="http://www.w3.org/2000/svg">
<path fill-rule="evenodd" clip-rule="evenodd" d="M25.9895 2.40556C26.4564 2.5524 26.8643 2.84436 27.1538 3.23898C27.4434 3.6336 27.5995 4.11031 27.5995 4.59976V16.0998H36.7995C37.2202 16.0996 37.6329 16.2148 37.9927 16.4329C38.3524 16.6509 38.6455 16.9635 38.84 17.3366C39.0345 17.7096 39.1229 18.1289 39.0957 18.5487C39.0684 18.9686 38.9265 19.3729 38.6855 19.7177L22.5855 42.7177C22.3053 43.1191 21.9043 43.4207 21.4408 43.5785C20.9774 43.7363 20.4757 43.7421 20.0088 43.5951C19.5418 43.4481 19.1339 43.1559 18.8445 42.761C18.5551 42.3662 18.3991 41.8893 18.3995 41.3998V29.8998H9.19946C8.77875 29.9 8.36604 29.7847 8.00626 29.5667C7.64648 29.3486 7.3534 29.036 7.15892 28.663C6.96445 28.2899 6.87602 27.8706 6.90327 27.4508C6.93051 27.031 7.07239 26.6267 7.31346 26.2819L23.4135 3.28186C23.6941 2.88117 24.0952 2.58039 24.5584 2.42322C25.0217 2.26604 25.5229 2.26067 25.9895 2.40786V2.40556Z" fill="white"/>
</svg>
