<svg width="46" height="46" viewBox="0 0 46 46" fill="none" xmlns="http://www.w3.org/2000/svg">
<rect width="46" height="46" fill="#F4F4F4"/>
<g id="Landing Page - Mobile" clip-path="url(#clip0_22_249)" filter="url(#filter0_d_22_249)">
<rect width="375" height="9283" transform="translate(-165 -4095)" fill="white"/>
<g id="Group 2194">
<g id="Frame 103">
<g id="Frame 46">
<g id="Frame 44">
<g id="majesticons:dollar-circle">
<rect x="-28" y="-28" width="102" height="102" rx="24" fill="#3461FF"/>
<g id="heroicons-solid:lightning-bolt" clip-path="url(#clip1_22_249)">
<path id="Vector" fill-rule="evenodd" clip-rule="evenodd" d="M6.90002 43.6003H39.1001C41.6899 43.6003 43.5299 42.471 44.6477 40.9185C45.6781 39.4856 46.0001 37.8365 46.0001 36.7003V22.9002C46.0001 22.2902 45.7578 21.7052 45.3265 21.2739C44.8951 20.8426 44.3101 20.6002 43.7001 20.6002H36.8001V9.10021C36.8001 7.27021 36.0731 5.51517 34.7791 4.22116C33.4851 2.92716 31.7301 2.2002 29.9001 2.2002H6.90002C5.07002 2.2002 3.31497 2.92716 2.02097 4.22116C0.726964 5.51517 0 7.27021 0 9.10021V36.7003C0 37.8342 0.322001 39.4856 1.3524 40.9185C2.47021 42.4733 4.31021 43.6003 6.90002 43.6003ZM39.1001 25.2002C39.7101 25.2002 40.2951 25.4426 40.7264 25.8739C41.1578 26.3052 41.4001 26.8903 41.4001 27.5003V36.7003C41.4001 37.3103 41.1578 37.8953 40.7264 38.3266C40.2951 38.758 39.7101 39.0003 39.1001 39.0003C38.4901 39.0003 37.9051 38.758 37.4737 38.3266C37.0424 37.8953 36.8001 37.3103 36.8001 36.7003V27.5003C36.8001 26.8903 37.0424 26.3052 37.4737 25.8739C37.9051 25.4426 38.4901 25.2002 39.1001 25.2002ZM16.1 18.3002C16.1 17.6902 16.3424 17.1052 16.7737 16.6739C17.205 16.2425 17.79 16.0002 18.4 16.0002C19.01 16.0002 19.5951 16.2425 20.0264 16.6739C20.4577 17.1052 20.7 17.6902 20.7 18.3002C20.7 18.9102 20.4577 19.4952 20.0264 19.9266C19.5951 20.3579 19.01 20.6002 18.4 20.6002C17.79 20.6002 17.205 20.3579 16.7737 19.9266C16.3424 19.4952 16.1 18.9102 16.1 18.3002ZM18.4 11.4002C16.57 11.4002 14.815 12.1272 13.521 13.4212C12.227 14.7152 11.5 16.4702 11.5 18.3002C11.5 20.1302 12.227 21.8853 13.521 23.1793C14.815 24.4733 16.57 25.2002 18.4 25.2002C20.23 25.2002 21.9851 24.4733 23.2791 23.1793C24.5731 21.8853 25.3001 20.1302 25.3001 18.3002C25.3001 16.4702 24.5731 14.7152 23.2791 13.4212C21.9851 12.1272 20.23 11.4002 18.4 11.4002ZM11.5 29.8003C10.89 29.8003 10.305 30.0426 9.87368 30.4739C9.44234 30.9052 9.20002 31.4903 9.20002 32.1003C9.20002 32.7103 9.44234 33.2953 9.87368 33.7266C10.305 34.1579 10.89 34.4003 11.5 34.4003H25.3001C25.9101 34.4003 26.4951 34.1579 26.9264 33.7266C27.3577 33.2953 27.6001 32.7103 27.6001 32.1003C27.6001 31.4903 27.3577 30.9052 26.9264 30.4739C26.4951 30.0426 25.9101 29.8003 25.3001 29.8003H11.5Z" fill="white"/>
</g>
</g>
</g>
</g>
</g>
</g>
</g>
<defs>
<filter id="filter0_d_22_249" x="-201" y="-4107" width="447" height="9355" filterUnits="userSpaceOnUse" color-interpolation-filters="sRGB">
<feFlood flood-opacity="0" result="BackgroundImageFix"/>
<feColorMatrix in="SourceAlpha" type="matrix" values="0 0 0 0 0 0 0 0 0 0 0 0 0 0 0 0 0 0 127 0" result="hardAlpha"/>
<feMorphology radius="12" operator="erode" in="SourceAlpha" result="effect1_dropShadow_22_249"/>
<feOffset dy="24"/>
<feGaussianBlur stdDeviation="24"/>
<feColorMatrix type="matrix" values="0 0 0 0 0.0625882 0 0 0 0 0.0926346 0 0 0 0 0.15702 0 0 0 0.18 0"/>
<feBlend mode="normal" in2="BackgroundImageFix" result="effect1_dropShadow_22_249"/>
<feBlend mode="normal" in="SourceGraphic" in2="effect1_dropShadow_22_249" result="shape"/>
</filter>
<clipPath id="clip0_22_249">
<rect width="375" height="9283" fill="white" transform="translate(-165 -4095)"/>
</clipPath>
<clipPath id="clip1_22_249">
<rect width="46" height="46" fill="white"/>
</clipPath>
</defs>
</svg>
