<svg width="127" height="48" viewBox="0 0 127 48" fill="none" xmlns="http://www.w3.org/2000/svg">
<path d="M27.1506 11.884C27.1253 11.707 26.9736 11.6059 26.8472 11.6059C26.7208 11.6059 24.2181 11.5554 24.2181 11.5554C24.2181 11.5554 22.1199 9.53297 21.9177 9.30545C21.7154 9.10321 21.3109 9.15377 21.1593 9.20433C21.1593 9.20433 20.7548 9.33073 20.0975 9.53297C19.9964 9.17905 19.8194 8.74929 19.5919 8.29426C18.8588 6.87858 17.7465 6.12019 16.4319 6.12019C16.3308 6.12019 16.255 6.12019 16.1538 6.14547C16.1033 6.09491 16.078 6.04435 16.0274 6.01907C15.446 5.41235 14.7129 5.10899 13.8281 5.13427C12.1343 5.18483 10.4406 6.42355 9.05019 8.59762C8.08956 10.1397 7.35644 12.061 7.12892 13.5525C5.18237 14.1592 3.81726 14.5889 3.7667 14.5889C2.78079 14.8923 2.75551 14.9176 2.62911 15.8529C2.57855 16.5608 0 36.5066 0 36.5066L21.6396 40.248L31.0184 37.9223C30.9931 37.9223 27.1759 12.061 27.1506 11.884ZM19.0105 9.88689C18.5049 10.0386 17.9487 10.2155 17.342 10.4178C17.342 9.55825 17.2156 8.34482 16.8364 7.33362C18.1257 7.53586 18.7577 9.00209 19.0105 9.88689ZM16.2044 10.7464C15.0668 11.1003 13.8281 11.4795 12.5894 11.8587C12.9433 10.5189 13.6006 9.20433 14.4095 8.31954C14.7129 7.9909 15.1426 7.63698 15.623 7.43474C16.1286 8.42066 16.2297 9.81105 16.2044 10.7464ZM13.8787 6.27187C14.2831 6.27187 14.6118 6.34771 14.8898 6.54995C14.4348 6.77746 13.9798 7.13138 13.5753 7.58642C12.4883 8.74929 11.654 10.5442 11.3254 12.2885C10.2889 12.6171 9.27771 12.9205 8.36764 13.1986C8.97435 10.443 11.2748 6.34771 13.8787 6.27187Z" fill="#95BF47"/>
<path d="M26.8473 11.6056C26.7209 11.6056 24.2182 11.555 24.2182 11.555C24.2182 11.555 22.12 9.53263 21.9177 9.30511C21.8419 9.22927 21.7408 9.17871 21.6396 9.17871V40.2477L31.0185 37.9219C31.0185 37.9219 27.2012 12.0606 27.1759 11.8837C27.1254 11.7067 26.9737 11.6056 26.8473 11.6056Z" fill="#5E8E3E"/>
<path d="M16.4323 16.4337L15.3452 20.5038C15.3452 20.5038 14.1318 19.9476 12.6908 20.0487C10.5673 20.1751 10.5673 21.515 10.5673 21.8436C10.6937 23.6637 15.4716 24.0682 15.7497 28.3405C15.9519 31.7027 13.9801 34.0032 11.0982 34.1802C7.66015 34.3571 5.76416 32.3347 5.76416 32.3347L6.49728 29.2253C6.49728 29.2253 8.41855 30.6663 9.93534 30.5652C10.9213 30.5146 11.3005 29.6804 11.2499 29.1242C11.0982 26.7479 7.20511 26.8996 6.95231 22.9812C6.75008 19.6948 8.89886 16.3831 13.6515 16.0798C15.4969 15.9534 16.4323 16.4337 16.4323 16.4337Z" fill="white"/>
<path d="M43.7092 25.1057C42.6221 24.5243 42.066 24.0187 42.066 23.3361C42.066 22.4766 42.8496 21.9204 44.0631 21.9204C45.4788 21.9204 46.7427 22.5019 46.7427 22.5019L47.7287 19.4683C47.7287 19.4683 46.8186 18.7605 44.1389 18.7605C40.3975 18.7605 37.7937 20.9092 37.7937 23.9175C37.7937 25.6366 39.0071 26.9259 40.625 27.8612C41.9396 28.5943 42.3946 29.1252 42.3946 29.9089C42.3946 30.7178 41.7373 31.3751 40.5239 31.3751C38.729 31.3751 37.01 30.4398 37.01 30.4398L35.9482 33.4733C35.9482 33.4733 37.5156 34.5351 40.17 34.5351C44.0125 34.5351 46.7933 32.6391 46.7933 29.2263C46.768 27.3809 45.3776 26.0663 43.7092 25.1057Z" fill="black"/>
<path d="M59.0288 18.7101C57.1329 18.7101 55.6413 19.6202 54.5038 20.9853L54.4532 20.96L56.0964 12.3649H51.8241L47.6529 34.2572H51.9252L53.3409 26.7744C53.897 23.943 55.3633 22.1987 56.7284 22.1987C57.689 22.1987 58.0682 22.856 58.0682 23.7914C58.0682 24.3728 58.0177 25.1059 57.8913 25.6874L56.2733 34.2572H60.5456L62.2141 25.4093C62.3911 24.4739 62.5175 23.3616 62.5175 22.6032C62.5428 20.1763 61.2788 18.7101 59.0288 18.7101Z" fill="black"/>
<path d="M72.2246 18.7097C67.0675 18.7097 63.6547 23.3612 63.6547 28.5436C63.6547 31.8553 65.7024 34.5349 69.5449 34.5349C74.6009 34.5349 78.0137 30.0098 78.0137 24.7011C78.039 21.6422 76.2441 18.7097 72.2246 18.7097ZM70.1263 31.2738C68.6601 31.2738 68.0534 30.0351 68.0534 28.4678C68.0534 26.0156 69.3174 22.0214 71.6431 22.0214C73.1599 22.0214 73.6655 23.336 73.6655 24.5999C73.6655 27.2291 72.3763 31.2738 70.1263 31.2738Z" fill="black"/>
<path d="M88.9857 18.7097C86.1038 18.7097 84.4606 21.263 84.4606 21.263H84.4101L84.6629 18.9625H80.8709C80.6939 20.5046 80.34 22.8809 80.0114 24.6505L77.0283 40.324H81.3006L82.4888 33.9788H82.5899C82.5899 33.9788 83.4747 34.5349 85.0926 34.5349C90.1233 34.5349 93.4097 29.3778 93.4097 24.1702C93.4097 21.2883 92.1204 18.7097 88.9857 18.7097ZM84.8904 31.3244C83.7781 31.3244 83.1208 30.6924 83.1208 30.6924L83.8286 26.6982C84.3342 24.0185 85.7246 22.2489 87.2161 22.2489C88.5307 22.2489 88.9352 23.4624 88.9352 24.5999C88.9352 27.3807 87.292 31.3244 84.8904 31.3244Z" fill="black"/>
<path d="M99.5267 12.567C98.1616 12.567 97.0745 13.654 97.0745 15.0444C97.0745 16.3084 97.8835 17.1932 99.0969 17.1932H99.1475C100.487 17.1932 101.625 16.2832 101.65 14.7158C101.65 13.4771 100.816 12.567 99.5267 12.567Z" fill="black"/>
<path d="M93.5356 34.2317H97.8079L100.715 19.0638H96.4175L93.5356 34.2317Z" fill="black"/>
<path d="M111.61 19.0388H108.627L108.779 18.3309C109.032 16.8647 109.891 15.5754 111.332 15.5754C112.091 15.5754 112.698 15.8029 112.698 15.8029L113.532 12.4407C113.532 12.4407 112.799 12.0615 111.206 12.0615C109.689 12.0615 108.172 12.4913 107.01 13.4772C105.543 14.7159 104.861 16.5108 104.532 18.3309L104.406 19.0388H102.409L101.777 22.2746H103.774L101.499 34.2572H105.771L108.046 22.2746H111.004L111.61 19.0388Z" fill="black"/>
<path d="M121.924 19.0638C121.924 19.0638 119.245 25.8135 118.057 29.5044H118.006C117.93 28.3162 116.944 19.0638 116.944 19.0638H112.444L115.023 32.993C115.074 33.2964 115.048 33.4986 114.922 33.7008C114.416 34.6615 113.582 35.5968 112.596 36.2794C111.787 36.8608 110.877 37.24 110.169 37.4928L111.357 41.1331C112.217 40.9562 114.037 40.2231 115.554 38.8074C117.5 36.9872 119.321 34.1559 121.166 30.3133L126.399 19.0638H121.924Z" fill="black"/>
</svg>
